<svg width="44" height="45" viewBox="0 0 44 45" fill="none" xmlns="http://www.w3.org/2000/svg">
<path d="M18.1278 19.0836C16.8738 19.0836 15.8838 20.1836 15.8838 21.5256C15.8838 22.8676 16.8958 23.9676 18.1278 23.9676C19.3818 23.9676 20.3718 22.8676 20.3718 21.5256C20.3938 20.1836 19.3818 19.0836 18.1278 19.0836ZM26.1578 19.0836C24.9038 19.0836 23.9138 20.1836 23.9138 21.5256C23.9138 22.8676 24.9258 23.9676 26.1578 23.9676C27.4118 23.9676 28.4018 22.8676 28.4018 21.5256C28.4018 20.1836 27.4118 19.0836 26.1578 19.0836Z" fill="white"/>
<path d="M36.8499 0.625641H7.36986C4.88386 0.625641 2.85986 2.64964 2.85986 5.15764V34.9016C2.85986 37.4096 4.88386 39.4336 7.36986 39.4336H32.3179L31.1519 35.3636L33.9679 37.9816L36.6299 40.4456L41.3599 44.6256V5.15764C41.3599 2.64964 39.3359 0.625641 36.8499 0.625641ZM28.3579 29.3576C28.3579 29.3576 27.5659 28.4116 26.9059 27.5756C29.7879 26.7616 30.8879 24.9576 30.8879 24.9576C29.9859 25.5516 29.1279 25.9696 28.3579 26.2556C27.2579 26.7176 26.2019 27.0256 25.1679 27.2016C23.0559 27.5976 21.1199 27.4876 19.4699 27.1796C18.2159 26.9376 17.1379 26.5856 16.2359 26.2336C15.7299 26.0356 15.1799 25.7936 14.6299 25.4856C14.5639 25.4416 14.4979 25.4196 14.4319 25.3756C14.3879 25.3536 14.3659 25.3316 14.3439 25.3096C13.9479 25.0896 13.7279 24.9356 13.7279 24.9356C13.7279 24.9356 14.7839 26.6956 17.5779 27.5316C16.9179 28.3676 16.1039 29.3576 16.1039 29.3576C11.2419 29.2036 9.39386 26.0136 9.39386 26.0136C9.39386 18.9296 12.5619 13.1876 12.5619 13.1876C15.7299 10.8116 18.7439 10.8776 18.7439 10.8776L18.9639 11.1416C15.0039 12.2856 13.1779 14.0236 13.1779 14.0236C13.1779 14.0236 13.6619 13.7596 14.4759 13.3856C16.8299 12.3516 18.6999 12.0656 19.4699 11.9996C19.6019 11.9776 19.7119 11.9556 19.8439 11.9556C21.1859 11.7796 22.7039 11.7356 24.2879 11.9116C26.3779 12.1536 28.6219 12.7696 30.9099 14.0236C30.9099 14.0236 29.1719 12.3736 25.4319 11.2296L25.7399 10.8776C25.7399 10.8776 28.7539 10.8116 31.9219 13.1876C31.9219 13.1876 35.0899 18.9296 35.0899 26.0136C35.0899 26.0136 33.2199 29.2036 28.3579 29.3576V29.3576Z" fill="white"/>
</svg>
