<svg width="44" height="44" viewBox="0 0 44 44" fill="none" xmlns="http://www.w3.org/2000/svg">
<path d="M43.5617 13.2001C43.5617 13.2001 43.132 10.1665 41.8086 8.83446C40.1328 7.08133 38.2594 7.07274 37.4 6.96961C31.2469 6.52274 22.0086 6.52274 22.0086 6.52274H21.9914C21.9914 6.52274 12.7531 6.52274 6.6 6.96961C5.74063 7.07274 3.86719 7.08133 2.19141 8.83446C0.867969 10.1665 0.446875 13.2001 0.446875 13.2001C0.446875 13.2001 0 16.7665 0 20.3243V23.6587C0 27.2165 0.438281 30.7829 0.438281 30.7829C0.438281 30.7829 0.867969 33.8165 2.18281 35.1485C3.85859 36.9016 6.05859 36.8415 7.03828 37.0306C10.5617 37.3657 22 37.4688 22 37.4688C22 37.4688 31.2469 37.4516 37.4 37.0134C38.2594 36.9102 40.1328 36.9016 41.8086 35.1485C43.132 33.8165 43.5617 30.7829 43.5617 30.7829C43.5617 30.7829 44 27.2251 44 23.6587V20.3243C44 16.7665 43.5617 13.2001 43.5617 13.2001ZM17.4539 27.7063V15.3399L29.3391 21.5446L17.4539 27.7063Z" fill="white"/>
</svg>
